<?xml version="1.0" standalone="no"?>
<!DOCTYPE svg PUBLIC "-//W3C//DTD SVG 20010904//EN"
 "http://www.w3.org/TR/2001/REC-SVG-20010904/DTD/svg10.dtd">
<svg version="1.0" xmlns="http://www.w3.org/2000/svg"
 width="853.000000pt" height="853.000000pt" viewBox="0 0 853.000000 853.000000"
 preserveAspectRatio="xMidYMid meet">
<metadata>
Created by potrace 1.14, written by Peter Selinger 2001-2017
</metadata>
<g transform="translate(0.000000,853.000000) scale(0.100000,-0.100000)"
fill="#000000" stroke="none">
<path d="M4230 8495 c0 -28 -4 -35 -20 -35 -13 0 -20 -7 -20 -20 0 -11 6 -20
14 -20 10 0 15 -20 18 -81 3 -70 6 -83 27 -100 13 -10 38 -19 57 -19 30 0 34
3 34 25 0 17 -5 25 -18 25 -31 0 -42 22 -42 82 0 58 0 58 30 58 25 0 30 4 30
25 0 21 -5 25 -30 25 -28 0 -30 3 -30 35 0 31 -3 35 -25 35 -22 0 -25 -4 -25
-35z"/>
<path d="M4678 8388 c-19 -166 -14 -191 40 -196 27 -3 32 0 32 19 0 12 -7 27
-15 33 -14 10 -14 24 0 141 8 72 15 133 15 138 0 4 -13 7 -28 7 l-29 0 -15
-142z"/>
<path d="M4005 8455 c-22 -8 -41 -15 -42 -15 -7 0 -2 -18 10 -34 12 -16 15
-16 42 -2 38 20 50 20 69 0 24 -23 19 -34 -14 -34 -97 0 -155 -83 -97 -138 28
-27 92 -30 119 -5 11 9 18 11 18 5 0 -7 12 -12 26 -12 l27 0 -5 93 c-6 107
-15 131 -59 146 -40 14 -45 13 -94 -4z m95 -140 c0 -9 -11 -27 -25 -41 -20
-20 -28 -23 -45 -14 -29 16 -25 46 8 58 40 15 62 14 62 -3z"/>
<path d="M4434 8450 c-41 -16 -64 -59 -64 -117 0 -49 4 -59 34 -89 30 -30 40
-34 85 -34 29 0 65 7 81 15 80 41 79 172 0 219 -30 17 -101 20 -136 6z m113
-62 c29 -27 31 -80 3 -108 -33 -33 -75 -30 -107 6 -30 33 -29 69 2 99 30 31
71 32 102 3z"/>
<path d="M3768 8434 c-16 -8 -28 -19 -28 -25 0 -6 -10 -3 -22 5 -31 22 -80 20
-112 -5 -14 -11 -26 -16 -26 -10 0 6 -11 11 -25 11 -20 0 -25 -5 -25 -26 0
-27 22 -217 25 -222 2 -2 14 0 28 3 24 7 25 9 23 92 -1 82 0 86 27 106 24 18
29 19 41 7 8 -8 20 -53 26 -100 6 -47 13 -86 15 -88 1 -2 14 0 27 3 24 6 24 7
16 72 -11 81 -5 108 28 129 23 16 26 16 42 1 10 -11 20 -48 27 -99 10 -79 12
-83 35 -80 13 1 26 4 28 7 2 2 -2 45 -9 95 -14 107 -34 140 -82 140 -18 -1
-44 -8 -59 -16z"/>
<path d="M4853 8405 c-66 -28 -92 -118 -53 -182 56 -93 204 -80 238 21 22 69
-12 139 -81 165 -37 14 -65 13 -104 -4z m108 -64 c33 -33 35 -50 14 -90 -23
-46 -66 -54 -109 -20 -43 34 -34 99 19 127 31 17 44 14 76 -17z"/>
<path d="M3412 8382 c-10 -7 -10 -22 0 -80 14 -83 4 -118 -38 -128 -33 -8 -49
10 -59 64 -16 94 -25 112 -50 112 -31 0 -31 -15 -5 -125 22 -95 45 -120 99
-111 20 3 48 15 63 26 15 11 28 16 28 10 0 -15 40 -12 46 4 3 8 -5 63 -18 123
-24 107 -35 125 -66 105z"/>
<path d="M5110 8332 c-16 -16 -32 -46 -36 -67 -16 -86 30 -151 106 -149 44 2
49 -5 22 -29 -23 -21 -71 -22 -100 -1 -18 12 -26 13 -37 4 -8 -7 -15 -18 -15
-25 0 -21 64 -45 118 -45 68 0 95 28 117 123 9 40 22 98 30 130 14 62 17 57
-35 62 -8 1 -25 6 -37 13 -12 7 -40 12 -63 12 -32 0 -48 -6 -70 -28z m122 -39
c22 -20 23 -54 3 -93 -32 -61 -105 -42 -105 28 0 71 56 107 102 65z"/>
<path d="M5366 8258 c3 -34 10 -92 14 -128 7 -60 6 -67 -16 -90 -21 -22 -27
-23 -45 -12 -16 10 -24 10 -35 1 -32 -27 -3 -59 55 -59 39 0 62 22 170 160 75
95 87 116 73 122 -35 14 -48 6 -97 -59 l-50 -66 -8 84 c-9 90 -10 93 -45 104
-23 7 -23 6 -16 -57z"/>
<path d="M2658 8256 c-71 -28 -128 -55 -128 -61 0 -5 4 -16 9 -24 8 -12 16
-12 53 2 24 9 48 17 53 17 6 0 33 -58 60 -130 28 -71 55 -130 61 -130 5 0 18
6 27 13 16 11 13 22 -33 141 -28 71 -48 131 -45 135 4 3 25 12 47 21 46 17 54
28 36 51 -12 14 -27 11 -140 -35z"/>
<path d="M3038 8288 c-39 -23 -50 -54 -23 -64 8 -3 26 4 41 15 30 24 54 27 72
9 18 -18 15 -25 -17 -31 -15 -3 -42 -18 -60 -32 -25 -21 -31 -35 -31 -64 0
-24 7 -44 18 -54 25 -23 97 -22 120 1 10 10 31 18 48 18 25 -1 29 2 26 24 -6
55 -44 161 -64 180 -29 26 -83 25 -130 -2z m122 -126 c0 -47 -69 -85 -84 -46
-9 23 -9 23 27 44 40 25 57 25 57 2z"/>
<path d="M2902 8236 c-13 -18 -22 -22 -30 -14 -12 12 -52 1 -51 -15 0 -7 17
-59 38 -117 32 -87 41 -104 57 -102 33 6 34 16 12 83 -24 75 -20 112 16 131
19 11 22 17 15 36 -11 29 -33 28 -57 -2z"/>
<path d="M5868 8163 c-107 -235 -107 -237 -90 -250 28 -23 39 -14 68 52 42
100 65 83 79 -56 6 -59 9 -68 32 -78 14 -6 28 -10 30 -7 2 2 0 39 -6 81 -17
123 -20 117 64 171 41 27 75 52 75 55 0 3 -12 11 -26 18 -24 10 -32 7 -93 -34
-98 -67 -115 -60 -75 31 24 55 25 59 8 71 -10 7 -22 13 -27 13 -4 0 -22 -30
-39 -67z"/>
<path d="M5531 8018 c-36 -49 -37 -54 -12 -61 13 -3 31 8 58 35 37 38 37 40
19 54 -28 20 -31 19 -65 -28z"/>
<path d="M2376 8030 c-44 -14 -76 -49 -76 -85 0 -48 26 -65 98 -65 54 0 62 -3
62 -18 0 -22 -44 -45 -70 -37 -21 7 -36 -35 -17 -47 48 -30 147 29 147 87 0
48 -26 65 -98 65 -66 0 -81 9 -56 34 15 15 34 20 62 17 18 -3 15 46 -4 53 -9
3 -16 6 -17 5 -1 0 -15 -5 -31 -9z"/>
<path d="M6067 7912 l-57 -109 26 -12 c15 -6 28 -10 29 -9 1 2 17 32 35 67 36
68 63 87 105 77 42 -11 42 -33 -1 -115 -21 -41 -40 -78 -42 -81 -1 -4 9 -12
22 -18 30 -13 31 -12 80 85 20 40 36 85 36 101 0 41 -41 76 -90 77 -30 0 -40
4 -40 16 0 15 -19 29 -39 29 -4 0 -32 -49 -64 -108z"/>
<path d="M2126 7967 c-18 -13 -18 -15 -1 -41 15 -22 16 -29 6 -36 -20 -12 -4
-52 18 -45 13 4 23 -6 41 -37 46 -85 80 -106 136 -88 53 18 42 60 -15 57 -30
-2 -36 3 -63 51 l-30 52 22 18 c14 11 19 23 15 35 -8 20 -26 22 -44 5 -10 -11
-17 -8 -35 15 -25 31 -26 31 -50 14z"/>
<path d="M2055 7839 c-12 -22 -19 -28 -25 -20 -6 10 -12 10 -29 0 -11 -8 -21
-17 -21 -21 0 -6 115 -196 125 -206 5 -5 45 22 45 30 0 4 -16 33 -35 65 -40
67 -43 95 -13 125 16 16 18 25 11 37 -18 28 -41 24 -58 -10z"/>
<path d="M6352 7836 c-38 -21 -62 -66 -62 -119 0 -40 5 -53 33 -83 26 -29 42
-37 80 -41 45 -5 47 -5 47 21 0 22 -4 26 -30 26 -38 0 -80 39 -80 75 0 33 9
32 75 -10 78 -50 81 -51 99 -16 26 50 21 88 -18 127 -28 28 -41 34 -77 34 -24
-1 -54 -6 -67 -14z m110 -53 c19 -17 24 -38 10 -47 -12 -7 -93 44 -87 55 10
15 57 10 77 -8z"/>
<path d="M3960 7780 c-480 -42 -931 -173 -1348 -391 -1005 -525 -1699 -1503
-1861 -2624 -94 -651 -2 -1343 260 -1936 21 -50 39 -92 39 -94 0 -3 -187 -5
-415 -5 -274 0 -415 -3 -415 -10 0 -23 142 -292 201 -380 38 -57 107 -140 174
-206 159 -162 316 -258 517 -318 158 -47 192 -51 433 -51 211 1 240 3 355 27
237 51 414 111 619 209 l123 59 2552 0 2552 0 208 322 c114 177 210 328 213
335 4 11 -63 13 -360 13 l-366 0 36 78 c95 204 183 478 232 720 58 282 66 368
66 722 0 331 -4 389 -46 630 -125 721 -495 1411 -1031 1925 -568 544 -1266
871 -2063 965 -123 15 -546 21 -675 10z m700 -105 c121 -15 363 -61 465 -88
l50 -13 8 -65 c57 -486 143 -774 308 -1029 23 -36 36 -59 28 -52 -19 18 -66
15 -88 -7 -12 -12 -23 -46 -30 -92 -49 -309 -200 -749 -363 -1058 -91 -174
-105 -193 -131 -186 -30 9 -187 86 -272 135 -104 60 -210 90 -335 97 -189 10
-316 -22 -490 -125 -184 -109 -326 -152 -503 -152 -191 0 -343 59 -472 182
-78 73 -145 183 -145 235 0 77 154 264 275 334 200 117 455 168 764 155 175
-7 191 -2 191 61 0 57 -23 70 -146 78 -435 30 -816 -76 -1037 -289 -65 -62
-67 -59 -36 60 42 160 145 373 301 618 l73 115 65 11 c175 31 495 40 660 20
41 -5 109 -13 151 -16 72 -6 77 -6 92 17 22 30 21 61 0 88 -28 34 -153 51
-425 58 -160 4 -272 2 -348 -7 -61 -6 -113 -10 -116 -7 -2 2 2 20 11 40 51
122 115 410 140 632 9 77 19 143 23 146 10 10 221 58 341 79 91 15 176 26 366
44 90 9 507 -4 625 -19z m-1436 -162 c-33 -294 -74 -488 -150 -694 l-36 -97
-41 -6 c-62 -10 -263 -79 -349 -120 -181 -86 -361 -232 -480 -390 -69 -92
-175 -303 -217 -431 -57 -178 -66 -241 -66 -475 0 -198 2 -224 27 -327 79
-333 268 -626 529 -822 75 -56 226 -141 295 -165 33 -11 39 -19 78 -116 91
-225 230 -456 411 -680 91 -114 157 -224 229 -383 l35 -77 -1165 0 -1165 0
-44 95 c-327 705 -398 1546 -195 2310 253 953 908 1758 1789 2200 154 77 465
202 507 204 6 1 9 -11 8 -26z m2164 -8 c727 -253 1370 -768 1785 -1432 93
-148 245 -459 307 -625 86 -234 149 -488 187 -758 25 -179 25 -703 0 -875 -38
-261 -86 -462 -162 -683 -42 -122 -148 -379 -164 -395 -4 -4 -523 -6 -1155 -5
l-1147 3 104 210 c59 117 157 292 223 395 224 353 324 552 382 760 23 82 27
115 27 235 0 233 -39 310 -209 410 -16 9 -14 22 21 164 l38 154 65 53 c36 29
80 73 99 98 19 25 35 45 36 43 1 -1 -2 -78 -7 -172 -5 -93 -10 -375 -11 -626
-2 -437 -1 -458 17 -478 33 -36 116 -20 116 22 0 7 2 212 4 457 6 518 27 1003
71 1560 16 208 12 223 -51 228 -61 4 -73 -15 -84 -139 -5 -57 -10 -117 -10
-134 -1 -27 -3 -24 -20 21 -17 49 -17 54 1 145 24 124 23 136 -6 164 -32 33
-60 31 -96 -4 -16 -16 -29 -26 -30 -23 0 4 -2 16 -3 27 -5 39 -17 64 -35 70
-19 6 -147 207 -206 324 -20 40 -54 126 -75 190 -58 175 -84 301 -125 614 -3
20 -1 37 4 37 5 0 54 -16 109 -35z m-2530 -1087 c-185 -307 -261 -510 -278
-738 -6 -82 -16 -136 -34 -186 -61 -170 -73 -426 -27 -599 26 -100 95 -239
161 -326 l49 -66 -11 -89 c-7 -61 -7 -116 -1 -174 6 -47 9 -86 8 -88 -7 -8
-131 64 -203 117 -251 190 -428 486 -487 814 -24 133 -17 393 14 516 84 335
240 585 468 753 96 71 354 195 409 198 7 0 -24 -60 -68 -132z m2692 -215 c-72
-322 -163 -660 -262 -970 l-62 -193 -74 0 c-40 0 -72 3 -70 8 2 4 29 55 61
114 187 345 356 837 402 1172 6 45 7 47 21 28 13 -18 11 -36 -16 -159z m115
-279 c-36 -189 -115 -557 -155 -732 -24 -99 -23 -98 -101 -122 l-26 -8 44 137
c66 204 137 458 201 719 41 167 59 227 65 213 6 -12 -4 -86 -28 -207z m151
-151 c27 -140 11 -304 -42 -410 -24 -51 -121 -165 -110 -131 8 25 103 473 117
550 7 38 15 66 17 63 3 -3 11 -35 18 -72z m-3051 -618 c156 -150 329 -210 580
-202 197 6 325 46 518 160 151 91 227 112 392 112 115 -1 139 -4 210 -29 44
-15 116 -50 161 -77 72 -43 158 -86 232 -115 22 -9 22 -10 -24 -79 -26 -38
-48 -71 -50 -73 -6 -9 -55 26 -115 83 -104 98 -166 105 -328 38 -94 -38 -98
-38 -206 9 -72 32 -150 41 -208 25 -15 -4 -61 -39 -102 -76 -117 -109 -139
-115 -420 -117 -173 -1 -250 -6 -310 -19 -121 -25 -201 -63 -267 -123 -15 -14
-30 -24 -32 -21 -22 24 -89 142 -109 192 -49 122 -71 308 -51 429 l7 38 30
-48 c16 -26 58 -74 92 -107z m2671 -260 l-23 -90 -53 2 c-29 2 -55 5 -58 8 -5
5 36 125 48 138 6 7 102 36 107 33 1 -1 -8 -42 -21 -91z m-248 50 c1 -1 -8
-31 -21 -66 l-24 -64 -102 -3 c-57 -1 -101 1 -99 5 1 4 21 38 43 74 l39 65 81
-4 c44 -2 81 -6 83 -7z m-1071 -57 c91 -43 174 -45 249 -6 28 15 72 32 97 38
58 15 93 0 166 -75 29 -30 62 -57 72 -60 11 -4 19 -10 19 -15 0 -18 -122 -160
-201 -234 -191 -179 -395 -284 -619 -317 -120 -17 -352 -7 -458 20 -175 45
-360 142 -502 264 l-82 69 27 28 c36 38 115 76 210 101 70 19 105 21 293 20
301 -1 369 17 487 130 94 90 119 94 242 37z m983 -178 c0 -31 -198 -449 -266
-561 -39 -65 -43 -100 -14 -129 29 -29 76 -26 106 7 30 32 227 427 288 578
l45 110 62 -3 c34 -1 64 -3 65 -5 5 -5 -129 -466 -170 -586 -20 -58 -36 -119
-36 -137 0 -55 48 -86 97 -62 23 11 34 35 79 171 29 86 78 249 110 362 l58
205 41 -24 c81 -48 125 -151 125 -298 0 -96 -11 -154 -58 -293 -46 -138 -141
-326 -262 -520 -194 -312 -248 -406 -340 -598 l-95 -197 -672 3 -673 2 -54
117 c-74 161 -153 290 -271 441 -113 144 -212 297 -284 437 -58 113 -95 199
-89 205 2 3 54 -4 116 -15 576 -98 990 -12 1377 287 142 110 352 329 459 478
l29 40 113 -3 c63 -2 114 -7 114 -12z m-2135 -408 c219 -148 429 -219 683
-231 l147 -6 -90 -18 c-216 -43 -504 -29 -806 39 l-67 15 -10 57 c-19 99 -25
170 -17 217 l6 46 47 -39 c26 -22 74 -57 107 -80z m-609 -1937 l111 -163 -91
-41 c-143 -63 -250 -100 -394 -137 -526 -135 -942 -50 -1242 255 -72 73 -190
225 -190 245 0 3 381 6 848 6 l847 -1 111 -164z m5437 151 c-4 -7 -42 -66 -83
-130 l-75 -116 -2481 0 -2480 0 -87 125 c-48 69 -87 127 -87 130 0 3 1193 5
2650 5 2228 0 2650 -2 2643 -14z"/>
<path d="M3626 6591 c-26 -29 -25 -79 2 -101 12 -10 48 -20 89 -24 37 -4 105
-12 150 -18 75 -11 84 -10 103 7 29 26 28 90 -2 109 -27 17 -120 33 -238 42
-78 6 -86 5 -104 -15z"/>
<path d="M3611 6411 c-51 -51 -9 -121 72 -121 25 0 80 -5 122 -11 73 -11 77
-11 100 11 14 13 25 34 25 47 0 63 -37 80 -196 90 -94 5 -103 4 -123 -16z"/>
<path d="M3546 6229 c-21 -31 -20 -61 3 -90 17 -22 28 -24 162 -30 87 -4 151
-3 162 3 42 22 41 105 -1 124 -10 4 -83 9 -163 12 -144 4 -147 4 -163 -19z"/>
<path d="M6053 6154 c-15 -24 -18 -68 -21 -420 -6 -527 16 -984 67 -1382 20
-158 31 -182 86 -182 67 0 75 36 50 230 -47 363 -69 844 -63 1353 5 436 7 427
-62 427 -32 0 -43 -5 -57 -26z"/>
<path d="M6216 6095 c-26 -27 -29 -81 -17 -334 22 -471 76 -851 182 -1272 49
-196 53 -207 85 -219 48 -19 94 11 94 61 0 16 -16 89 -35 161 -76 291 -141
680 -169 1008 -12 138 -27 457 -26 562 0 43 -80 66 -114 33z"/>
<path d="M1856 7720 c-52 -16 -96 -75 -96 -131 0 -74 81 -137 157 -123 49 9
99 59 108 107 11 56 -24 121 -76 141 -44 18 -51 18 -93 6z m89 -75 c31 -30 32
-71 3 -102 -29 -31 -72 -30 -103 2 -31 30 -32 71 -3 102 29 31 72 30 103 -2z"/>
<path d="M6572 7691 c-99 -63 -91 -192 15 -237 50 -21 73 -18 73 10 0 18 -7
25 -30 29 -40 9 -70 41 -70 77 0 17 3 30 6 30 4 0 35 -20 70 -45 34 -25 67
-45 72 -45 14 0 42 63 42 94 0 16 -13 41 -33 62 -41 45 -96 55 -145 25z m88
-41 c25 -13 41 -43 31 -58 -5 -9 -19 -4 -51 19 -33 24 -39 33 -29 40 18 11 26
11 49 -1z"/>
<path d="M1597 7530 c-14 -11 -29 -29 -32 -40 -3 -10 -12 -17 -19 -14 -7 3
-19 -2 -26 -11 -11 -14 -12 -20 -1 -38 23 -36 192 -237 200 -237 4 0 16 6 26
14 18 13 18 16 -19 60 -34 41 -35 46 -16 46 60 0 103 76 81 143 -7 20 -28 50
-47 67 -43 37 -106 42 -147 10z m112 -61 c39 -39 42 -82 6 -105 -30 -20 -57
-12 -90 27 -30 37 -32 62 -5 89 28 28 54 25 89 -11z"/>
<path d="M6925 7515 c-32 -31 -31 -59 2 -140 l27 -66 -21 -21 c-21 -20 -23
-21 -48 -4 -15 10 -33 33 -41 52 -14 34 -45 46 -59 24 -12 -19 16 -79 51 -110
42 -36 98 -41 137 -10 34 27 40 61 21 112 -38 105 -39 108 -21 125 23 23 62 4
84 -42 11 -23 22 -34 31 -30 7 3 18 5 23 5 15 0 10 33 -11 67 -39 64 -130 84
-175 38z"/>
<path d="M1344 7431 c-45 -27 -64 -59 -64 -106 0 -79 57 -103 166 -68 60 19
84 9 84 -33 0 -26 -49 -64 -82 -64 -12 0 -18 -8 -18 -25 0 -21 5 -25 30 -25
99 0 166 117 107 186 -28 32 -76 35 -150 10 -51 -17 -87 -10 -87 18 0 24 39
64 69 71 23 5 27 10 23 30 -5 31 -34 33 -78 6z"/>
<path d="M7052 7256 c-58 -60 -72 -80 -72 -105 0 -36 34 -77 73 -87 15 -3 24
-11 21 -18 -3 -7 5 -21 17 -32 l21 -19 84 90 c47 49 83 94 81 99 -2 5 -11 14
-20 20 -14 9 -27 1 -71 -43 -58 -57 -97 -69 -130 -41 -27 22 -18 42 46 107
l62 63 -20 20 -20 21 -72 -75z"/>
<path d="M1096 7188 c-22 -30 -20 -70 4 -100 14 -19 16 -28 8 -36 -9 -9 -7
-15 8 -26 11 -9 23 -11 28 -6 6 6 39 -17 83 -57 70 -62 75 -65 88 -47 8 11 15
22 15 26 0 3 -32 35 -70 70 -70 64 -70 65 -50 83 15 14 17 21 9 32 -15 17 -29
17 -51 -3 -16 -16 -18 -15 -24 1 -4 10 -2 26 5 37 9 15 9 23 0 34 -17 20 -36
17 -53 -8z"/>
<path d="M7235 7043 c-47 -42 -85 -79 -85 -82 1 -9 26 -41 33 -41 4 0 29 20
56 44 62 56 83 62 121 39 28 -16 31 -16 46 -1 23 22 11 47 -25 54 -20 4 -28
11 -24 20 5 15 -13 44 -28 44 -4 0 -47 -34 -94 -77z"/>
<path d="M1017 6952 c-28 -17 -67 -84 -67 -115 0 -36 30 -87 62 -107 47 -30
118 -23 159 16 61 58 60 146 -2 199 -37 30 -109 34 -152 7z m96 -44 c48 -25
62 -78 30 -116 -30 -35 -65 -37 -101 -7 -40 34 -43 75 -7 110 27 28 46 31 78
13z"/>
<path d="M7374 6941 c-47 -29 -74 -69 -74 -111 0 -41 29 -87 64 -100 20 -7 20
-8 -6 -20 -23 -11 -31 -10 -54 5 -15 9 -31 30 -37 46 -14 36 -57 42 -57 8 0
-32 38 -87 70 -104 61 -31 91 -21 202 67 57 44 105 83 108 85 3 3 -7 15 -21
27 -15 13 -30 33 -33 44 -11 34 -64 72 -99 72 -18 0 -46 -9 -63 -19z m92 -49
c6 -4 17 -18 24 -31 10 -20 9 -27 -7 -49 -11 -15 -34 -32 -52 -39 -29 -12 -33
-11 -57 12 -30 30 -26 58 12 93 25 22 59 28 80 14z"/>
<path d="M7509 6691 c-34 -34 -39 -44 -39 -86 0 -54 21 -95 60 -119 36 -21 47
-20 60 4 9 17 7 22 -14 29 -47 19 -70 78 -43 114 11 15 18 9 60 -53 39 -57 51
-68 65 -61 78 41 79 156 2 196 -16 8 -48 15 -71 15 -35 0 -48 -6 -80 -39z
m141 -31 c21 -21 23 -29 14 -54 -9 -24 -17 -20 -52 29 l-32 45 25 0 c14 0 34
-9 45 -20z"/>
<path d="M800 6675 c-13 -23 -10 -30 33 -92 26 -37 45 -68 43 -70 -2 -2 -36 4
-75 12 -78 18 -94 16 -110 -13 -10 -19 -3 -21 112 -42 88 -17 127 -29 140 -43
21 -24 22 -53 1 -65 -13 -7 -14 -13 -5 -31 21 -39 71 7 71 66 0 19 -30 72 -92
165 -51 76 -96 138 -99 138 -3 0 -12 -11 -19 -25z"/>
<path d="M7677 6479 c-97 -61 -110 -76 -82 -99 12 -10 24 -6 64 19 72 44 97
48 132 22 23 -17 33 -19 49 -11 11 6 20 14 20 19 0 11 -31 36 -55 45 -15 5
-16 9 -6 15 10 7 11 13 2 30 -7 11 -15 21 -19 21 -4 0 -52 -27 -105 -61z"/>
<path d="M660 6450 c-11 -20 -12 -20 -40 -3 -29 16 -30 16 -45 -2 -20 -27 -19
-30 11 -45 17 -10 24 -20 21 -32 -6 -23 31 -47 43 -28 6 10 22 5 63 -19 52
-30 109 -40 133 -23 5 4 18 18 27 31 16 23 15 25 -4 39 -18 13 -23 12 -40 -7
-11 -12 -22 -21 -25 -21 -3 0 -30 14 -59 32 -46 27 -52 34 -44 51 6 10 8 25 5
33 -8 21 -34 17 -46 -6z"/>
<path d="M7780 6310 c-68 -91 -78 -100 -105 -97 -20 1 -33 9 -40 25 -6 13 -18
22 -32 22 -30 0 -31 -37 -2 -74 25 -32 53 -33 219 -11 174 23 173 23 147 59
-12 16 -19 16 -99 3 l-87 -13 42 50 c73 88 71 84 59 111 -7 14 -15 25 -19 25
-5 0 -42 -45 -83 -100z"/>
<path d="M546 6260 c-36 -43 -43 -91 -19 -136 56 -108 212 -90 244 29 10 38 5
77 -11 77 -19 0 -40 -13 -34 -21 9 -15 -16 -78 -36 -89 -10 -6 -30 -10 -43
-10 l-24 0 40 77 c38 72 39 77 22 90 -11 7 -40 13 -66 13 -40 0 -51 -4 -73
-30z m84 -25 c0 -2 -10 -25 -22 -49 -17 -35 -25 -43 -35 -34 -17 14 -16 39 3
66 13 19 54 32 54 17z"/>
<path d="M360 6100 c-15 -28 -12 -38 12 -46 15 -4 25 -1 35 12 18 25 17 29
-12 42 -21 10 -26 9 -35 -8z"/>
<path d="M441 6052 c-9 -19 -9 -28 -2 -30 7 -2 57 -26 113 -53 103 -51 117
-52 118 -9 0 14 -90 65 -186 106 -30 12 -32 12 -43 -14z"/>
<path d="M8042 6040 c-12 -12 -22 -28 -22 -37 0 -13 -3 -14 -12 -5 -7 7 -31
12 -54 12 -60 0 -94 -36 -94 -100 0 -95 66 -146 157 -121 40 10 47 9 57 -5 10
-14 17 -14 34 -5 18 10 20 15 12 31 -6 11 -7 20 -3 20 24 1 33 18 23 44 -8 23
-13 25 -30 16 -16 -9 -22 -6 -35 19 -27 54 -14 91 33 91 17 0 27 -8 35 -30 12
-31 22 -36 46 -21 19 12 7 56 -24 87 -31 31 -92 33 -123 4z m-46 -102 c11 -13
26 -36 32 -51 11 -25 10 -28 -14 -37 -46 -18 -72 -12 -89 20 -20 38 -19 46 5
70 26 26 42 25 66 -2z"/>
<path d="M402 5945 c-18 -15 -36 -43 -42 -64 -20 -77 14 -139 88 -162 86 -25
162 37 162 132 0 46 -2 49 -25 49 -23 0 -25 -4 -25 -44 0 -36 -5 -48 -26 -65
-15 -12 -36 -21 -48 -21 -28 0 -65 27 -75 54 -11 27 6 74 30 87 22 12 23 19 6
43 -12 17 -15 16 -45 -9z"/>
<path d="M306 5679 c-102 -80 -55 -239 71 -239 128 0 183 179 74 243 -41 24
-112 22 -145 -4z m132 -65 c28 -32 28 -56 -1 -90 -17 -20 -33 -27 -57 -27 -24
0 -40 7 -57 27 -26 30 -28 44 -12 80 23 50 86 56 127 10z"/>
<path d="M7990 5573 c0 -30 21 -43 67 -43 47 0 55 -9 68 -81 5 -31 2 -36 -30
-58 -35 -24 -43 -44 -25 -71 7 -11 36 7 147 92 122 93 138 109 136 133 -1 15
-3 29 -5 30 -2 1 -83 6 -180 9 -170 7 -178 7 -178 -11z m245 -78 c-52 -37 -60
-36 -70 8 l-7 27 63 0 63 0 -49 -35z"/>
<path d="M123 5438 c-64 -68 -53 -173 20 -197 46 -16 73 -4 128 58 26 28 53
51 60 51 49 -1 56 -59 13 -105 -20 -22 -24 -33 -17 -44 18 -28 40 -23 70 15
23 31 28 47 28 92 0 47 -4 57 -28 78 -19 16 -40 24 -64 24 -32 0 -44 -8 -95
-62 -49 -53 -60 -61 -75 -52 -27 17 -28 62 -3 97 22 29 22 29 3 48 -19 19 -19
19 -40 -3z"/>
<path d="M8183 5312 c-104 -26 -116 -36 -94 -70 6 -11 19 -10 71 3 74 19 103
14 126 -20 20 -31 64 -35 64 -5 0 11 -10 30 -21 41 -14 14 -18 24 -11 28 16
10 2 51 -17 50 -9 -1 -62 -13 -118 -27z"/>
<path d="M8329 5183 c-10 -2 -19 -12 -21 -21 -4 -12 -23 -21 -64 -30 -88 -18
-104 -32 -104 -94 0 -42 3 -49 16 -44 9 3 20 6 25 6 5 0 9 11 9 24 0 30 14 40
73 55 53 13 67 9 67 -20 0 -14 7 -19 26 -19 24 0 26 3 21 29 -6 31 5 41 45 41
14 0 18 5 14 16 -3 9 -6 22 -6 30 0 10 -8 12 -30 7 -21 -4 -35 -1 -43 9 -7 8
-19 13 -28 11z"/>
<path d="M117 5022 c-25 -28 -31 -76 -15 -110 14 -26 14 -29 -1 -28 -10 1 -17
-8 -19 -25 -3 -25 -2 -25 114 -43 98 -16 117 -17 125 -5 17 26 9 38 -28 44
-106 18 -160 55 -147 102 9 31 24 34 116 18 45 -8 82 -14 83 -12 1 1 5 14 8
28 7 26 5 26 -63 38 -102 16 -154 14 -173 -7z"/>
<path d="M8315 4983 c-88 -14 -161 -26 -163 -28 -2 -1 0 -15 4 -30 5 -21 11
-25 28 -21 12 3 47 8 78 12 52 6 58 4 82 -19 51 -51 32 -73 -75 -92 -46 -8
-85 -15 -86 -15 -2 0 -3 -11 -3 -25 0 -29 19 -32 116 -14 79 14 91 18 109 35
19 20 19 93 0 118 -22 30 -19 33 35 40 47 6 50 8 50 36 0 17 -3 29 -7 29 -5
-1 -80 -12 -168 -26z"/>
<path d="M88 4741 c-44 -35 -47 -151 -4 -159 28 -6 39 12 25 41 -14 32 1 77
26 77 11 0 15 -11 15 -39 0 -53 14 -87 44 -107 63 -40 137 33 108 108 -6 16
-6 28 -1 28 5 0 9 14 9 30 0 25 -4 30 -23 30 -13 0 -57 3 -98 6 -66 6 -77 4
-101 -15z m152 -61 c11 -11 20 -28 20 -39 0 -23 -25 -45 -40 -36 -28 17 -35
95 -9 95 5 0 18 -9 29 -20z"/>
<path d="M8305 4696 l-110 -11 -3 -29 -4 -29 70 7 c84 8 121 -5 129 -46 5 -28
17 -33 47 -22 22 8 20 36 -4 62 -17 18 -18 22 -5 22 10 0 15 10 15 30 0 18 -5
29 -12 28 -7 0 -62 -6 -123 -12z"/>
<path d="M8293 4533 c-32 -6 -71 -50 -85 -95 -10 -33 -9 -45 8 -85 24 -59 70
-86 133 -80 65 7 103 49 108 119 8 101 -62 161 -164 141z m92 -78 c14 -13 25
-36 25 -50 0 -51 -63 -89 -115 -69 -22 9 -47 61 -40 84 9 27 53 60 82 60 13 0
35 -11 48 -25z"/>
<path d="M69 4491 c-24 -25 -29 -38 -29 -78 0 -28 7 -58 16 -71 50 -72 180
-68 219 8 27 52 15 160 -18 160 -31 -1 -38 -16 -23 -50 10 -25 11 -41 4 -62
-9 -25 -34 -48 -52 -48 -3 0 -6 38 -6 85 l0 85 -41 0 c-31 0 -47 -6 -70 -29z
m61 -88 l-1 -58 -24 28 c-29 33 -31 49 -9 71 27 27 34 18 34 -41z"/>
<path d="M95 4245 c-16 -9 -36 -23 -43 -32 -15 -20 -16 -97 -2 -124 7 -13 7
-19 0 -19 -5 0 -10 -12 -10 -27 l0 -26 113 6 c61 4 138 7 170 7 57 0 57 0 57
30 l0 30 -56 -6 c-55 -7 -56 -6 -45 14 20 38 13 89 -17 123 -24 27 -37 33 -83
36 -37 3 -64 -1 -84 -12z m123 -61 c30 -20 30 -68 0 -88 -51 -36 -128 -9 -128
44 0 35 31 60 75 60 17 0 41 -7 53 -16z"/>
<path d="M8226 4228 c-24 -34 -21 -123 4 -148 41 -41 89 -21 126 51 14 28 30
49 37 46 17 -5 21 -55 6 -73 -10 -12 -8 -17 7 -29 26 -20 30 -19 43 14 20 48
10 111 -21 134 -41 30 -76 15 -110 -48 -15 -28 -33 -50 -40 -50 -18 0 -22 43
-7 71 10 19 9 26 -1 39 -17 20 -26 19 -44 -7z"/>
<path d="M8245 4008 c-51 -40 -68 -113 -40 -168 16 -31 30 -36 53 -22 10 7 10
14 -3 38 -21 40 -19 58 8 90 17 20 33 27 57 27 24 0 40 -7 57 -27 27 -32 29
-50 8 -90 -12 -22 -12 -32 -4 -42 17 -21 27 -17 49 19 37 60 16 153 -41 182
-42 22 -111 19 -144 -7z"/>
<path d="M110 3958 c-64 -44 -75 -136 -24 -198 55 -64 155 -59 202 10 35 51
28 129 -15 172 -43 43 -113 50 -163 16z m129 -64 c25 -32 27 -61 6 -91 -48
-68 -166 -8 -135 68 15 36 35 48 77 49 22 0 38 -8 52 -26z"/>
<path d="M8231 3762 c-48 -26 -73 -76 -68 -131 6 -56 34 -92 85 -111 37 -13
47 -13 84 0 53 19 80 56 85 117 5 60 -22 108 -72 129 -46 19 -73 18 -114 -4z
m114 -67 c14 -13 25 -36 25 -50 0 -35 -42 -75 -78 -75 -45 0 -76 30 -76 75 0
70 79 101 129 50z"/>
<path d="M80 3658 c0 -12 8 -30 17 -40 14 -15 15 -21 4 -27 -8 -5 -11 -17 -6
-30 7 -24 4 -24 170 3 65 11 70 13 73 39 4 30 0 31 -83 17 -59 -9 -109 7 -120
39 -9 30 -55 29 -55 -1z"/>
<path d="M217 3496 c-53 -13 -99 -25 -102 -27 -2 -3 -1 -15 2 -28 5 -20 10
-22 37 -16 17 3 54 9 82 12 44 5 55 2 73 -16 24 -24 27 -53 9 -69 -7 -5 -40
-15 -73 -22 -92 -18 -95 -19 -95 -46 0 -30 16 -31 125 -5 116 28 144 76 90
155 -13 20 -20 36 -14 36 6 0 9 10 7 23 -4 30 -24 30 -141 3z"/>
<path d="M8045 3489 c-9 -26 4 -35 61 -44 l44 -6 -20 -21 c-30 -32 -27 -98 5
-136 28 -33 90 -52 144 -44 48 7 84 55 79 108 -2 25 2 46 10 54 33 31 10 44
-138 77 -173 39 -177 39 -185 12z m246 -95 c26 -24 24 -69 -3 -88 -30 -21 -56
-20 -95 4 -64 39 -30 118 46 106 18 -3 42 -13 52 -22z"/>
<path d="M7990 3260 c-6 -12 -10 -37 -8 -58 3 -39 15 -50 196 -189 59 -45 76
-54 83 -42 18 29 7 49 -57 96 l-66 48 39 7 c21 4 59 7 85 7 42 1 48 4 54 26 4
14 4 28 1 32 -3 3 -60 -1 -127 -9 -119 -14 -121 -14 -140 7 -22 24 -26 50 -8
61 7 5 5 11 -7 21 -25 18 -32 17 -45 -7z"/>
<path d="M378 3263 c-22 -6 -22 -4 1 -85 11 -37 16 -70 13 -72 -4 -2 -24 -8
-44 -14 l-38 -10 -16 54 c-11 40 -20 54 -34 54 -29 0 -32 -15 -16 -70 16 -54
17 -54 -36 -68 l-36 -10 -18 64 c-19 72 -23 77 -52 67 -19 -8 -18 -10 8 -103
15 -52 32 -94 36 -94 5 1 78 21 162 45 108 30 152 47 152 57 0 23 -52 192 -59
191 -3 -1 -14 -3 -23 -6z"/>
<path d="M2931 1460 c-155 -24 -275 -109 -338 -240 -24 -48 -27 -68 -28 -150
0 -84 3 -101 28 -152 54 -109 111 -149 438 -301 99 -46 169 -100 195 -148 22
-43 18 -127 -9 -171 -89 -146 -325 -143 -520 6 -26 20 -49 36 -52 36 -8 0
-115 -146 -115 -157 0 -15 107 -90 175 -123 89 -42 175 -60 297 -60 208 0 348
78 420 236 20 42 23 66 23 164 0 105 -2 119 -27 166 -53 101 -149 168 -383
269 -148 64 -214 108 -243 165 -54 105 16 224 153 261 92 25 235 -8 336 -78
41 -28 53 -32 60 -22 5 8 27 47 50 87 l40 73 -23 19 c-41 34 -152 88 -213 103
-78 20 -196 28 -264 17z"/>
<path d="M4005 1456 c-243 -46 -397 -258 -341 -473 19 -78 51 -129 113 -181
48 -41 91 -65 333 -180 187 -89 247 -165 219 -278 -47 -185 -326 -205 -542
-40 -26 20 -49 36 -51 36 -2 0 -30 -35 -61 -77 l-58 -77 42 -38 c54 -47 113
-80 205 -114 59 -22 93 -28 197 -32 132 -5 198 7 279 48 142 73 229 251 201
411 -14 84 -42 136 -104 198 -52 53 -89 73 -388 214 -108 50 -162 98 -180 157
-23 75 26 165 115 213 34 18 57 22 136 22 87 0 101 -3 165 -33 38 -18 84 -44
102 -58 17 -13 34 -24 37 -24 3 0 26 39 52 86 l47 86 -29 24 c-42 33 -141 81
-204 97 -85 22 -206 28 -285 13z"/>
<path d="M1490 730 l0 -710 430 0 430 0 0 90 0 90 -325 0 -325 0 0 225 0 225
250 0 250 0 0 90 0 90 -250 0 -250 0 0 215 0 215 310 0 310 0 0 90 0 90 -415
0 -415 0 0 -710z"/>
<path d="M4820 730 l0 -710 105 0 105 0 0 325 0 325 99 0 98 0 188 -325 189
-325 118 0 118 0 -19 38 c-11 20 -110 188 -219 372 l-198 334 199 326 c110
179 202 331 204 338 4 9 -22 12 -110 12 l-114 0 -177 -295 -177 -295 -99 0
-100 0 0 295 0 295 -105 0 -105 0 0 -710z"/>
<path d="M6390 1418 c-12 -29 -500 -1388 -500 -1394 0 -2 48 -4 108 -4 l107 0
70 205 70 205 260 0 260 0 71 -203 70 -202 107 -3 c71 -2 107 1 107 8 0 6
-113 326 -252 710 l-251 700 -109 0 c-103 0 -109 -1 -118 -22z m234 -568 c47
-135 83 -246 82 -248 -2 -1 -93 -1 -203 0 l-201 3 83 235 c45 129 91 268 101
308 l19 74 18 -64 c10 -34 55 -173 101 -308z"/>
</g>
</svg>
